<svg xmlns="http://www.w3.org/2000/svg" viewBox="0.88 1.12 143.78 28.27"><g fill-rule="evenodd" clip-path="url(#a)" clip-rule="evenodd"><path d="M34.95 10.28v-3h17.91v3h-7.24v12.6h-3.4v-12.6h-7.27ZM56.36 7.28v15.6h3.43v-5.46h9.26c.64 0 1.07.14 1.33.38.25.23.41.62.41 1.25v3.83h3.4v-4.23c0-.96-.33-1.74-.92-2.3a3.16 3.16 0 0 0-1.24-.69 4.07 4.07 0 0 0 1.4-1.1c.58-.71.87-1.62.87-2.67 0-1.47-.5-2.65-1.55-3.45-1.03-.78-2.57-1.16-4.59-1.16h-11.8Zm11.2 7.23H59.8v-4.34h7.78c1.13 0 1.94.15 2.46.48.49.3.76.8.76 1.63 0 .83-.27 1.36-.77 1.7-.52.35-1.33.53-2.45.53ZM78.58 22.88V7.28h4.74l6.8 11.66L96.9 7.28h4.72v15.6h-3.4v-11.5l-6.61 11.5h-2.99L82 11.38v11.5h-3.42ZM110.9 7.28h-4.6v15.6h3.42v-12l10.94 12h4.57V7.28h-3.4v12l-10.93-12ZM133.35 7.28h-3.42v15.6h14.71v-3h-11.29V7.29ZM8.02 2.11l7.87 2.96-1.46 3.91-7.87-2.96 1.46-3.9ZM20.63 1.15l2.6 8.02-3.96 1.29-2.6-8.02 3.96-1.3ZM29.24 10.45l-4.62 7.03-3.47-2.3 4.62-7.03 3.47 2.3ZM27.37 23l-8.36.76-.38-4.16 8.37-.76.37 4.16ZM16.43 29.36l-5.8-6.09 3-2.89 5.8 6.1-3 2.88ZM4.65 24.74l1.13-8.36 4.12.56-1.13 8.36-4.12-.56ZM.91 12.6l7.21-4.32 2.13 3.58-7.2 4.33L.9 12.61Z"/></g><defs><clipPath id="a"><path fill="#fff" d="M0 0h145v30H0z"/></clipPath></defs><script/></svg>
